<svg width="1812" height="741" viewBox="0 0 1812 741" fill="none" xmlns="http://www.w3.org/2000/svg">
<g filter="url(#filter0_d_250_1897)">
<rect x="1059" y="528" width="69.4262" height="65.459" rx="23.8033" fill="white"/>
</g>
<path d="M1104.04 571.353V553.73C1104.04 550.331 1101.65 547.405 1098.33 546.742C1095.09 546.093 1091.75 546.093 1088.51 546.742C1085.19 547.405 1082.8 550.331 1082.8 553.73V571.353C1082.8 573.415 1085.03 574.698 1086.8 573.656L1091.63 570.811C1092.74 570.16 1094.11 570.16 1095.21 570.811L1100.04 573.656C1101.81 574.698 1104.04 573.415 1104.04 571.353Z" stroke="#51459D" stroke-width="3.37213" stroke-linecap="round" stroke-linejoin="round"/>
<path d="M1082.8 571.353C1082.8 573.415 1085.03 574.698 1086.8 573.656L1091.63 570.811C1092.74 570.16 1094.11 570.16 1095.21 570.811L1100.04 573.656C1101.81 574.698 1104.04 573.415 1104.04 571.353V553.73C1104.04 550.331 1101.65 547.405 1098.33 546.742C1095.09 546.093 1091.75 546.093 1088.51 546.742" stroke="#CECECE" stroke-width="3.37213" stroke-linecap="round" stroke-linejoin="round"/>
<g filter="url(#filter1_d_250_1897)">
<rect x="1534" y="58" width="69.4262" height="65.459" rx="23.8033" fill="white"/>
</g>
<path d="M1568.13 106.86C1568.13 107.791 1568.89 108.546 1569.82 108.546C1570.75 108.546 1571.5 107.791 1571.5 106.86H1568.13ZM1571.5 103.297C1571.5 102.366 1570.75 101.611 1569.82 101.611C1568.89 101.611 1568.13 102.366 1568.13 103.297H1571.5ZM1568.13 103.297V106.86H1571.5V103.297H1568.13Z" fill="#51459D"/>
<path d="M1574.15 99.1046C1574.15 98.1734 1573.39 97.4185 1572.46 97.4185C1571.53 97.4185 1570.78 98.1734 1570.78 99.1046H1574.15ZM1568.86 99.1046C1568.86 98.1734 1568.1 97.4185 1567.17 97.4185C1566.24 97.4185 1565.49 98.1734 1565.49 99.1046H1568.86ZM1558.29 90.8678L1556.66 91.2918L1558.29 90.8678ZM1558.29 83.217L1559.92 83.641L1558.29 83.217ZM1581.12 83.217L1579.49 83.641L1581.12 83.217ZM1581.12 90.8678L1582.75 91.2918L1581.12 90.8678ZM1573.56 97.4267L1573.21 95.7772H1573.21L1573.56 97.4267ZM1565.85 97.4267L1566.2 95.7772L1566.2 95.7772L1565.85 97.4267ZM1565.85 76.6581L1566.2 78.3076L1565.85 76.6581ZM1573.56 76.6581L1573.91 75.0086V75.0086L1573.56 76.6581ZM1565.07 97.2614L1564.72 98.9109H1564.72L1565.07 97.2614ZM1574.34 97.2614L1574.69 98.9109H1574.69L1574.34 97.2614ZM1574.34 76.8234L1573.99 78.4729L1574.34 76.8234ZM1565.07 76.8234L1564.72 75.1739L1565.07 76.8234ZM1570.78 99.1046V100.551H1574.15V99.1046H1570.78ZM1568.86 100.551V99.1046H1565.49V100.551H1568.86ZM1565.49 100.551C1565.49 102.947 1567.46 104.822 1569.82 104.822V101.45C1569.25 101.45 1568.86 101.011 1568.86 100.551H1565.49ZM1570.78 100.551C1570.78 101.011 1570.38 101.45 1569.82 101.45V104.822C1572.17 104.822 1574.15 102.947 1574.15 100.551H1570.78ZM1565.42 78.4729L1566.2 78.3076L1565.5 75.0086L1564.72 75.1739L1565.42 78.4729ZM1573.21 78.3076L1573.99 78.4729L1574.69 75.1739L1573.91 75.0086L1573.21 78.3076ZM1573.99 95.612L1573.21 95.7772L1573.91 99.0762L1574.69 98.9109L1573.99 95.612ZM1566.2 95.7772L1565.42 95.612L1564.72 98.9109L1565.5 99.0762L1566.2 95.7772ZM1559.92 90.4438C1559.34 88.2114 1559.34 85.8734 1559.92 83.641L1556.66 82.793C1555.94 85.5815 1555.94 88.5033 1556.66 91.2918L1559.92 90.4438ZM1579.49 83.641C1580.07 85.8734 1580.07 88.2114 1579.49 90.4438L1582.75 91.2918C1583.47 88.5033 1583.47 85.5815 1582.75 82.793L1579.49 83.641ZM1573.21 95.7772C1570.9 96.2664 1568.51 96.2664 1566.2 95.7772L1565.5 99.0762C1568.27 99.6629 1571.14 99.6629 1573.91 99.0762L1573.21 95.7772ZM1566.2 78.3076C1568.51 77.8184 1570.9 77.8184 1573.21 78.3076L1573.91 75.0086C1571.14 74.4219 1568.27 74.4219 1565.5 75.0086L1566.2 78.3076ZM1565.42 95.612C1562.71 95.0384 1560.59 93.0239 1559.92 90.4438L1556.66 91.2918C1557.66 95.1415 1560.79 98.0795 1564.72 98.9109L1565.42 95.612ZM1574.69 98.9109C1578.62 98.0795 1581.75 95.1415 1582.75 91.2918L1579.49 90.4438C1578.82 93.0239 1576.7 95.0384 1573.99 95.612L1574.69 98.9109ZM1573.99 78.4729C1576.7 79.0465 1578.82 81.0609 1579.49 83.641L1582.75 82.793C1581.75 78.9433 1578.62 76.0053 1574.69 75.1739L1573.99 78.4729ZM1564.72 75.1739C1560.79 76.0053 1557.66 78.9433 1556.66 82.793L1559.92 83.641C1560.59 81.0609 1562.71 79.0465 1565.42 78.4729L1564.72 75.1739Z" fill="#CECECE"/>
<path d="M1571.83 83.805C1572.42 83.0845 1572.31 82.0222 1571.59 81.4323C1570.87 80.8424 1569.81 80.9484 1569.22 81.6689L1571.83 83.805ZM1567 87.0449L1565.69 85.9768C1565.28 86.481 1565.19 87.1778 1565.47 87.7667C1565.75 88.3555 1566.35 88.7309 1567 88.7309V87.0449ZM1572.29 87.0449L1573.59 88.1129C1574 87.6087 1574.09 86.9119 1573.81 86.3231C1573.53 85.7342 1572.94 85.3588 1572.29 85.3588V87.0449ZM1567.46 90.2847C1566.87 91.0053 1566.97 92.0676 1567.69 92.6574C1568.41 93.2473 1569.47 93.1414 1570.06 92.4208L1567.46 90.2847ZM1569.22 81.6689L1565.69 85.9768L1568.3 88.1129L1571.83 83.805L1569.22 81.6689ZM1567 88.7309H1572.29V85.3588H1567V88.7309ZM1570.98 85.9768L1567.46 90.2847L1570.06 92.4208L1573.59 88.1129L1570.98 85.9768Z" fill="#51459D"/>
<g filter="url(#filter2_d_250_1897)">
<rect x="1702" y="621" width="69.4262" height="65.459" rx="23.8033" fill="white"/>
</g>
<path d="M1736.16 660.855L1736.16 660.89" stroke="#51459D" stroke-width="3.37213" stroke-linecap="round"/>
<path d="M1738.09 645.427H1734.23" stroke="#51459D" stroke-width="3.37213" stroke-linecap="round"/>
<path d="M1740.66 666.442L1740.23 664.812L1740.66 666.442ZM1731.66 666.442L1732.09 664.812L1731.66 666.442ZM1731.66 639.84L1731.23 638.21L1731.66 639.84ZM1740.66 639.84L1741.09 638.21L1740.66 639.84ZM1747.99 648.113L1749.64 647.769L1749.64 647.769L1747.99 648.113ZM1747.99 658.17L1749.64 658.513L1747.99 658.17ZM1724.34 658.17L1722.69 658.514L1722.69 658.514L1724.34 658.17ZM1724.34 648.113L1725.99 648.457L1724.34 648.113ZM1747.84 658.873L1746.19 658.529V658.529L1747.84 658.873ZM1747.84 647.409L1746.19 647.753V647.753L1747.84 647.409ZM1724.48 647.409L1722.83 647.066H1722.83L1724.48 647.409ZM1724.48 658.873L1726.14 658.529L1724.48 658.873ZM1747.42 658.047C1748.36 658.047 1749.11 657.292 1749.11 656.361C1749.11 655.43 1748.36 654.675 1747.42 654.675V658.047ZM1724.9 654.675C1723.97 654.675 1723.21 655.43 1723.21 656.361C1723.21 657.292 1723.97 658.047 1724.9 658.047V654.675ZM1726.14 658.529L1725.99 657.826L1722.69 658.514L1722.83 659.217L1726.14 658.529ZM1725.99 648.457L1726.14 647.753L1722.83 647.066L1722.69 647.769L1725.99 648.457ZM1746.19 647.753L1746.34 648.457L1749.64 647.769L1749.49 647.066L1746.19 647.753ZM1746.34 657.826L1746.19 658.529L1749.49 659.217L1749.64 658.513L1746.34 657.826ZM1740.23 664.812C1737.56 665.516 1734.76 665.516 1732.09 664.812L1731.23 668.073C1734.46 668.926 1737.86 668.926 1741.09 668.073L1740.23 664.812ZM1732.09 641.47C1734.76 640.766 1737.56 640.766 1740.23 641.47L1741.09 638.21C1737.86 637.357 1734.46 637.357 1731.23 638.21L1732.09 641.47ZM1746.34 648.457C1746.98 651.546 1746.98 654.736 1746.34 657.826L1749.64 658.513C1750.38 654.97 1750.38 651.312 1749.64 647.769L1746.34 648.457ZM1725.99 657.826C1725.34 654.736 1725.34 651.546 1725.99 648.457L1722.69 647.769C1721.95 651.312 1721.95 654.97 1722.69 658.514L1725.99 657.826ZM1746.19 658.529C1745.55 661.584 1743.25 664.016 1740.23 664.812L1741.09 668.073C1745.34 666.95 1748.59 663.521 1749.49 659.217L1746.19 658.529ZM1749.49 647.066C1748.59 642.761 1745.34 639.332 1741.09 638.21L1740.23 641.47C1743.25 642.266 1745.55 644.698 1746.19 647.753L1749.49 647.066ZM1726.14 647.753C1726.77 644.698 1729.08 642.266 1732.09 641.47L1731.23 638.21C1726.98 639.332 1723.73 642.761 1722.83 647.066L1726.14 647.753ZM1722.83 659.217C1723.73 663.521 1726.98 666.95 1731.23 668.073L1732.09 664.812C1729.08 664.016 1726.77 661.584 1726.14 658.529L1722.83 659.217ZM1747.42 654.675H1724.9V658.047H1747.42V654.675Z" fill="#CECECE"/>
<g filter="url(#filter3_d_250_1897)">
<rect x="1330" y="38" width="69.4262" height="65.459" rx="23.8033" fill="white"/>
</g>
<path d="M1350.42 66.0921C1351.5 61.501 1355.08 57.9162 1359.67 56.8393C1362.99 56.0615 1366.44 56.0615 1369.75 56.8393C1374.35 57.9162 1377.93 61.501 1379.01 66.0921C1379.78 69.4077 1379.78 72.8583 1379.01 76.174C1377.93 80.7651 1374.35 84.3498 1369.75 85.4268C1366.44 86.2045 1362.99 86.2045 1359.67 85.4268C1355.08 84.3498 1351.5 80.7651 1350.42 76.174C1349.64 72.8584 1349.64 69.4077 1350.42 66.0921Z" stroke="#51459D" stroke-width="3.37213"/>
<path d="M1379.01 66.0921C1377.93 61.501 1374.35 57.9162 1369.75 56.8393C1366.44 56.0615 1362.99 56.0615 1359.67 56.8393C1355.08 57.9162 1351.5 61.501 1350.42 66.0921C1349.64 69.4077 1349.64 72.8584 1350.42 76.174C1351.5 80.7651 1355.08 84.3498 1359.67 85.4268C1362.99 86.2045 1366.44 86.2045 1369.75 85.4268" stroke="#CECECE" stroke-width="3.37213" stroke-linecap="round"/>
<path d="M1361.71 69.9701C1362.04 69.13 1362.71 68.4643 1363.55 68.1283L1366.92 66.781C1368.27 66.2412 1369.61 67.5803 1369.07 68.9297L1367.72 72.298C1367.38 73.1381 1366.72 73.8037 1365.88 74.1398L1362.51 75.4871C1361.16 76.0268 1359.82 74.6878 1360.36 73.3384L1361.71 69.9701Z" stroke="#51459D" stroke-width="3.37213" stroke-linecap="round" stroke-linejoin="round"/>
<g filter="url(#filter4_d_250_1897)">
<rect x="851" y="343" width="69.4262" height="65.459" rx="23.8033" fill="white"/>
</g>
<path d="M882.722 384.85L881.094 384.544L881.094 384.544L882.722 384.85ZM882.749 384.705L884.377 385.011L884.377 385.011L882.749 384.705ZM889.12 384.705L887.492 385.011L887.492 385.011L889.12 384.705ZM889.147 384.85L890.775 384.544L890.775 384.544L889.147 384.85ZM888.739 387.992L890.235 388.704V388.704L888.739 387.992ZM887.079 387.626C886.686 388.452 887.036 389.44 887.863 389.834C888.689 390.227 889.677 389.876 890.07 389.05L887.079 387.626ZM883.13 387.992L881.634 388.704L881.634 388.704L883.13 387.992ZM881.798 389.05C882.192 389.876 883.18 390.227 884.006 389.834C884.832 389.44 885.183 388.452 884.79 387.626L881.798 389.05ZM885.035 382.206L884.592 380.61L884.592 380.61L885.035 382.206ZM886.834 382.206L887.277 380.61V380.61L886.834 382.206ZM884.35 385.156L884.377 385.011L881.121 384.399L881.094 384.544L884.35 385.156ZM887.492 385.011L887.519 385.156L890.775 384.544L890.748 384.399L887.492 385.011ZM887.243 387.28L887.079 387.626L890.07 389.05L890.235 388.704L887.243 387.28ZM881.634 388.704L881.798 389.05L884.79 387.626L884.626 387.28L881.634 388.704ZM887.519 385.156C887.654 385.876 887.557 386.621 887.243 387.28L890.235 388.704C890.85 387.41 891.039 385.953 890.775 384.544L887.519 385.156ZM881.094 384.544C880.829 385.953 881.018 387.41 881.634 388.704L884.626 387.28C884.312 386.621 884.215 385.876 884.35 385.156L881.094 384.544ZM885.478 383.802C885.777 383.719 886.092 383.719 886.391 383.802L887.277 380.61C886.398 380.366 885.47 380.366 884.592 380.61L885.478 383.802ZM890.748 384.399C890.406 382.579 889.064 381.106 887.277 380.61L886.391 383.802C886.95 383.957 887.381 384.423 887.492 385.011L890.748 384.399ZM884.377 385.011C884.487 384.423 884.918 383.957 885.478 383.802L884.592 380.61C882.805 381.106 881.463 382.579 881.121 384.399L884.377 385.011Z" fill="#CECECE"/>
<path d="M897.855 372.738C897.855 371.824 897.114 371.082 896.199 371.082C895.284 371.082 894.542 371.824 894.542 372.738H897.855ZM877.326 372.738C877.326 371.824 876.584 371.082 875.67 371.082C874.755 371.082 874.013 371.824 874.013 372.738H877.326ZM889.473 388.21L889.092 386.598L889.473 388.21ZM882.395 388.21L882.776 386.598L882.395 388.21ZM889.917 366.114L888.741 367.281L889.917 366.114ZM897.431 376.033C898.076 376.682 899.125 376.686 899.774 376.041C900.423 375.396 900.427 374.347 899.782 373.698L897.431 376.033ZM881.952 366.114L883.127 367.281L881.952 366.114ZM872.086 373.698C871.442 374.347 871.445 375.396 872.095 376.041C872.744 376.686 873.793 376.682 874.437 376.033L872.086 373.698ZM894.542 372.738V379.664H897.855V372.738H894.542ZM877.326 379.664V372.738H874.013V379.664H877.326ZM889.092 386.598C887.015 387.089 884.853 387.089 882.776 386.598L882.015 389.822C884.593 390.431 887.276 390.431 889.854 389.822L889.092 386.598ZM882.776 386.598C879.591 385.845 877.326 382.979 877.326 379.664H874.013C874.013 384.5 877.32 388.713 882.015 389.822L882.776 386.598ZM889.854 389.822C894.549 388.713 897.855 384.5 897.855 379.664H894.542C894.542 382.979 892.277 385.845 889.092 386.598L889.854 389.822ZM888.741 367.281L897.431 376.033L899.782 373.698L891.092 364.947L888.741 367.281ZM880.776 364.947L872.086 373.698L874.437 376.033L883.127 367.281L880.776 364.947ZM891.092 364.947C890.187 364.035 889.392 363.23 888.668 362.673C887.906 362.088 887.029 361.621 885.934 361.621V364.934C886.006 364.934 886.181 364.94 886.65 365.3C887.156 365.689 887.77 366.302 888.741 367.281L891.092 364.947ZM883.127 367.281C884.099 366.302 884.713 365.689 885.219 365.3C885.687 364.94 885.862 364.934 885.934 364.934V361.621C884.84 361.621 883.962 362.088 883.2 362.673C882.476 363.23 881.682 364.035 880.776 364.947L883.127 367.281Z" fill="#51459D"/>
<g filter="url(#filter5_d_250_1897)">
<rect x="52" y="460" width="69.4262" height="65.459" rx="23.8033" fill="white"/>
</g>
<path d="M81.5409 504.343C81.6443 504.565 81.6848 504.815 81.6551 505.064L85.0032 505.465C85.1075 504.596 84.9674 503.712 84.5968 502.918L81.5409 504.343ZM81.6551 505.064C81.6253 505.312 81.5273 505.542 81.3782 505.727L84.0029 507.844C84.5536 507.161 84.8989 506.335 85.0032 505.465L81.6551 505.064ZM81.3782 505.727C81.2294 505.911 81.037 506.042 80.8274 506.111L81.8812 509.314C82.7168 509.04 83.4518 508.527 84.0029 507.844L81.3782 505.727ZM80.8274 506.111C80.6182 506.18 80.3957 506.186 80.1841 506.128L79.2994 509.382C80.1487 509.613 81.0453 509.589 81.8812 509.314L80.8274 506.111ZM80.1841 506.128C79.9721 506.071 79.7745 505.95 79.6176 505.775L77.1044 508.023C77.6897 508.677 78.4504 509.151 79.2994 509.382L80.1841 506.128ZM79.6176 505.775C79.4604 505.599 79.3514 505.376 79.3093 505.13L75.9854 505.698C76.1331 506.562 76.5193 507.369 77.1044 508.023L79.6176 505.775ZM79.3093 505.13C79.2673 504.884 79.2951 504.631 79.3877 504.403L76.2639 503.133C75.9338 503.945 75.8378 504.835 75.9854 505.698L79.3093 505.13ZM79.3877 504.403C79.4802 504.176 79.6315 503.987 79.8178 503.854L77.8622 501.107C77.1466 501.616 76.5941 502.321 76.2639 503.133L79.3877 504.403ZM96.235 504.084C96.41 504.237 96.5438 504.443 96.6143 504.681L99.8481 503.726C99.599 502.883 99.1175 502.125 98.4545 501.545L96.235 504.084ZM96.6143 504.681C96.6847 504.92 96.687 505.175 96.6208 505.415L99.8712 506.313C100.105 505.466 100.097 504.568 99.8481 503.726L96.6143 504.681ZM96.6208 505.415C96.5545 505.655 96.4242 505.864 96.2516 506.021L98.5173 508.518C99.1694 507.927 99.6372 507.16 99.8712 506.313L96.6208 505.415ZM96.2516 506.021C96.0793 506.177 95.8721 506.275 95.656 506.309L96.1833 509.64C97.0552 509.502 97.8647 509.11 98.5173 508.518L96.2516 506.021ZM95.656 506.309C95.4401 506.343 95.2182 506.313 95.015 506.221L93.617 509.29C94.42 509.655 95.3113 509.778 96.1833 509.64L95.656 506.309ZM95.015 506.221C94.8114 506.128 94.6313 505.974 94.5011 505.771L91.6628 507.592C92.1379 508.333 92.8146 508.924 93.617 509.29L95.015 506.221ZM94.5011 505.771C94.3706 505.568 94.2974 505.326 94.2945 505.075L90.9226 505.113C90.9325 505.991 91.1879 506.852 91.6628 507.592L94.5011 505.771ZM94.2945 505.075C94.2917 504.823 94.3595 504.58 94.4856 504.373L91.6064 502.617C91.1486 503.368 90.9127 504.234 90.9226 505.113L94.2945 505.075Z" fill="#51459D"/>
<path d="M74.8954 495.691L73.2578 496.092L74.8954 495.691ZM74.8954 486.347L76.5331 486.748L74.8954 486.347ZM101.34 486.347L102.978 485.946L101.34 486.347ZM101.34 495.691L102.978 496.092L101.34 495.691ZM92.6085 503.773L92.2389 502.128H92.2389L92.6085 503.773ZM83.6271 503.773L83.9968 502.128H83.9968L83.6271 503.773ZM83.6271 478.265L83.9968 479.91V479.91L83.6271 478.265ZM92.6086 478.265L92.9782 476.62V476.62L92.6086 478.265ZM82.8362 503.595L82.4665 505.24H82.4665L82.8362 503.595ZM93.3995 503.595L93.7692 505.24H93.7692L93.3995 503.595ZM93.3995 478.442L93.0298 480.087V480.087L93.3995 478.442ZM82.8362 478.442L82.4665 476.797L82.4665 476.797L82.8362 478.442ZM76.3871 480.876L74.7288 481.181L74.7288 481.181L76.3871 480.876ZM74.9664 482.475C75.1346 483.391 76.0133 483.997 76.9292 483.829C77.8451 483.661 78.4513 482.782 78.2831 481.867L74.9664 482.475ZM72.1315 474.612C71.2147 474.449 70.3392 475.06 70.1761 475.977C70.0129 476.894 70.6238 477.769 71.5406 477.932L72.1315 474.612ZM83.2058 480.087L83.9968 479.91L83.2575 476.62L82.4665 476.797L83.2058 480.087ZM92.2389 479.91L93.0298 480.087L93.7692 476.797L92.9782 476.62L92.2389 479.91ZM93.0298 501.95L92.2389 502.128L92.9782 505.418L93.7692 505.24L93.0298 501.95ZM83.9968 502.128L83.2058 501.95L82.4665 505.24L83.2575 505.418L83.9968 502.128ZM76.5331 495.29C75.8467 492.486 75.8467 489.551 76.5331 486.748L73.2578 485.946C72.4423 489.276 72.4423 492.761 73.2578 496.092L76.5331 495.29ZM99.7026 486.748C100.389 489.551 100.389 492.486 99.7026 495.29L102.978 496.092C103.793 492.761 103.793 489.276 102.978 485.946L99.7026 486.748ZM92.2389 502.128C89.5235 502.738 86.7122 502.738 83.9968 502.128L83.2575 505.418C86.4596 506.137 89.776 506.137 92.9782 505.418L92.2389 502.128ZM83.9968 479.91C86.7122 479.3 89.5235 479.3 92.2389 479.91L92.9782 476.62C89.776 475.9 86.4596 475.9 83.2575 476.62L83.9968 479.91ZM83.2058 501.95C79.9554 501.22 77.357 498.654 76.5331 495.29L73.2578 496.092C74.3769 500.663 77.9298 504.221 82.4665 505.24L83.2058 501.95ZM93.7692 505.24C98.3059 504.221 101.859 500.663 102.978 496.092L99.7026 495.29C98.8787 498.654 96.2803 501.22 93.0298 501.95L93.7692 505.24ZM93.0298 480.087C96.2803 480.818 98.8787 483.383 99.7026 486.748L102.978 485.946C101.859 481.375 98.3059 477.817 93.7692 476.797L93.0298 480.087ZM82.4665 476.797C77.9298 477.817 74.3769 481.375 73.2578 485.946L76.5331 486.748C77.357 483.383 79.9554 480.818 83.2058 480.087L82.4665 476.797ZM75.667 498.603H100.569V495.231H75.667V498.603ZM74.7288 481.181L74.9664 482.475L78.2831 481.867L78.0455 480.572L74.7288 481.181ZM71.5406 477.932C73.1293 478.215 74.4186 479.491 74.7288 481.181L78.0455 480.572C77.4896 477.544 75.1509 475.15 72.1315 474.612L71.5406 477.932Z" fill="#CECECE"/>
<path d="M91.881 482.955L91.9492 482.966C94.8016 483.441 96.8922 485.909 96.8922 488.801" stroke="#51459D" stroke-width="3.37213" stroke-linecap="round"/>
<g filter="url(#filter6_d_250_1897)">
<rect x="516" y="40" width="69.4262" height="65.459" rx="23.8033" fill="white"/>
</g>
<path d="M536.616 75.702L538.236 75.2334H538.236L536.616 75.702ZM536.616 64.713L534.996 64.2443H534.996L536.616 64.713ZM564.81 64.713L566.43 64.2443L566.43 64.2443L564.81 64.713ZM564.81 75.702L563.191 75.2333L563.191 75.2334L564.81 75.702ZM558.672 81.41L558.357 79.7536L558.672 81.41ZM542.754 81.41L543.069 79.7536L542.754 81.41ZM542.754 59.005L542.439 57.3486L542.754 59.005ZM558.672 59.005L558.987 57.3486L558.672 59.005ZM536.696 75.9778L535.076 76.4465H535.076L536.696 75.9778ZM564.731 75.9778L566.35 76.4464L566.35 76.4464L564.731 75.9778ZM564.731 64.4373L563.111 64.906V64.906L564.731 64.4373ZM536.696 64.4373L538.315 64.906V64.906L536.696 64.4373ZM552.399 82.9233C552.399 81.9921 551.644 81.2372 550.713 81.2372C549.782 81.2372 549.027 81.9921 549.027 82.9233H552.399ZM549.027 88.0096C549.027 88.9408 549.782 89.6957 550.713 89.6957C551.644 89.6957 552.399 88.9408 552.399 88.0096H549.027ZM546.356 86.3235C545.424 86.3235 544.669 87.0784 544.669 88.0096C544.669 88.9408 545.424 89.6957 546.356 89.6957V86.3235ZM555.071 89.6957C556.002 89.6957 556.757 88.9408 556.757 88.0096C556.757 87.0784 556.002 86.3235 555.071 86.3235V89.6957ZM563.111 64.906L563.191 65.1817L566.43 64.2443L566.35 63.9686L563.111 64.906ZM563.191 75.2334L563.111 75.5091L566.35 76.4464L566.43 76.1707L563.191 75.2334ZM538.315 75.5091L538.236 75.2334L534.996 76.1707L535.076 76.4465L538.315 75.5091ZM538.236 65.1817L538.315 64.906L535.076 63.9686L534.996 64.2443L538.236 65.1817ZM538.236 75.2334C537.284 71.9463 537.284 68.4687 538.236 65.1817L534.996 64.2443C533.868 68.1437 533.868 72.2714 534.996 76.1707L538.236 75.2334ZM563.191 65.1817C564.142 68.4687 564.142 71.9463 563.191 75.2333L566.43 76.1707C567.558 72.2714 567.558 68.1437 566.43 64.2443L563.191 65.1817ZM558.357 79.7536C553.309 80.7135 548.117 80.7135 543.069 79.7536L542.439 83.0664C547.904 84.1054 553.523 84.1054 558.987 83.0664L558.357 79.7536ZM543.069 60.6614C548.117 59.7016 553.309 59.7016 558.357 60.6614L558.987 57.3486C553.523 56.3097 547.904 56.3097 542.439 57.3486L543.069 60.6614ZM543.069 79.7536C540.762 79.3149 538.937 77.6578 538.315 75.5091L535.076 76.4465C536.062 79.8532 538.924 82.3979 542.439 83.0664L543.069 79.7536ZM558.987 83.0664C562.503 82.3979 565.364 79.8532 566.35 76.4464L563.111 75.5091C562.489 77.6578 560.664 79.3149 558.357 79.7536L558.987 83.0664ZM558.357 60.6614C560.664 61.1002 562.489 62.7573 563.111 64.906L566.35 63.9686C565.364 60.5618 562.503 58.0171 558.987 57.3486L558.357 60.6614ZM542.439 57.3486C538.924 58.0171 536.062 60.5618 535.076 63.9686L538.315 64.906C538.937 62.7573 540.762 61.1002 543.069 60.6614L542.439 57.3486ZM549.027 82.9233V88.0096H552.399V82.9233H549.027ZM546.356 89.6957H555.071V86.3235H546.356V89.6957Z" fill="#CECECE"/>
<path d="M544.101 71.8924L547.504 69.2124C548.125 68.7232 548.436 68.4786 548.78 68.5222C549.123 68.5658 549.363 68.8803 549.842 69.5092L551.584 71.7961C552.063 72.4251 552.303 72.7396 552.646 72.7832C552.99 72.8268 553.301 72.5822 553.922 72.093L557.325 69.4129" stroke="#51459D" stroke-width="3.37213" stroke-linecap="round"/>
<g filter="url(#filter7_d_250_1897)">
<rect x="1055" y="103" width="69.4262" height="65.459" rx="23.8033" fill="white"/>
</g>
<path d="M1096.45 148.509L1096.75 148.303C1097.68 147.657 1098.15 147.334 1098.57 146.988C1100.84 145.107 1102.36 142.484 1102.87 139.588C1102.96 139.055 1103.01 138.492 1103.11 137.364L1103.16 136.781C1103.32 134.915 1103.3 133.037 1103.11 131.174L1103.05 130.597C1102.71 127.337 1100.71 124.479 1097.75 123.035C1092.89 120.662 1087.2 120.662 1082.33 123.035C1079.38 124.479 1077.37 127.337 1077.04 130.597L1076.98 131.174C1076.78 133.037 1076.77 134.915 1076.93 136.781L1076.98 137.364C1077.08 138.492 1077.12 139.055 1077.22 139.588C1077.73 142.484 1079.25 145.107 1081.52 146.988C1081.94 147.334 1082.41 147.657 1083.34 148.303L1083.64 148.509C1084.91 149.387 1085.54 149.826 1086.18 150.131C1088.62 151.302 1091.47 151.302 1093.91 150.131C1094.55 149.826 1095.18 149.387 1096.45 148.509Z" stroke="#51459D" stroke-width="3.37213"/>
<path d="M1103.11 137.364L1103.16 136.781C1103.32 134.915 1103.3 133.037 1103.11 131.174L1103.05 130.597C1102.71 127.337 1100.71 124.479 1097.75 123.035C1092.89 120.662 1087.2 120.662 1082.33 123.035C1079.38 124.479 1077.37 127.337 1077.04 130.597L1076.98 131.174C1076.78 133.037 1076.77 134.915 1076.93 136.781L1076.98 137.364C1077.08 138.492 1077.12 139.055 1077.22 139.588C1077.73 142.484 1079.25 145.107 1081.52 146.988C1081.94 147.334 1082.41 147.657 1083.34 148.303L1083.64 148.509C1084.91 149.387 1085.54 149.826 1086.18 150.131" stroke="#CECECE" stroke-width="3.37213" stroke-linecap="round"/>
<path d="M1085.5 135.721L1088.8 139.027L1094.59 132.828" stroke="#51459D" stroke-width="3.37213" stroke-linecap="round" stroke-linejoin="round"/>
<defs>
<filter id="filter0_d_250_1897" x="1007.43" y="490.311" width="160.672" height="156.705" filterUnits="userSpaceOnUse" color-interpolation-filters="sRGB">
<feFlood flood-opacity="0" result="BackgroundImageFix"/>
<feColorMatrix in="SourceAlpha" type="matrix" values="0 0 0 0 0 0 0 0 0 0 0 0 0 0 0 0 0 0 127 0" result="hardAlpha"/>
<feOffset dx="-5.95082" dy="7.93443"/>
<feGaussianBlur stdDeviation="22.8115"/>
<feComposite in2="hardAlpha" operator="out"/>
<feColorMatrix type="matrix" values="0 0 0 0 0 0 0 0 0 0 0 0 0 0 0 0 0 0 0.1 0"/>
<feBlend mode="normal" in2="BackgroundImageFix" result="effect1_dropShadow_250_1897"/>
<feBlend mode="normal" in="SourceGraphic" in2="effect1_dropShadow_250_1897" result="shape"/>
</filter>
<filter id="filter1_d_250_1897" x="1482.43" y="20.3115" width="160.672" height="156.705" filterUnits="userSpaceOnUse" color-interpolation-filters="sRGB">
<feFlood flood-opacity="0" result="BackgroundImageFix"/>
<feColorMatrix in="SourceAlpha" type="matrix" values="0 0 0 0 0 0 0 0 0 0 0 0 0 0 0 0 0 0 127 0" result="hardAlpha"/>
<feOffset dx="-5.95082" dy="7.93443"/>
<feGaussianBlur stdDeviation="22.8115"/>
<feComposite in2="hardAlpha" operator="out"/>
<feColorMatrix type="matrix" values="0 0 0 0 0 0 0 0 0 0 0 0 0 0 0 0 0 0 0.1 0"/>
<feBlend mode="normal" in2="BackgroundImageFix" result="effect1_dropShadow_250_1897"/>
<feBlend mode="normal" in="SourceGraphic" in2="effect1_dropShadow_250_1897" result="shape"/>
</filter>
<filter id="filter2_d_250_1897" x="1650.43" y="583.311" width="160.672" height="156.705" filterUnits="userSpaceOnUse" color-interpolation-filters="sRGB">
<feFlood flood-opacity="0" result="BackgroundImageFix"/>
<feColorMatrix in="SourceAlpha" type="matrix" values="0 0 0 0 0 0 0 0 0 0 0 0 0 0 0 0 0 0 127 0" result="hardAlpha"/>
<feOffset dx="-5.95082" dy="7.93443"/>
<feGaussianBlur stdDeviation="22.8115"/>
<feComposite in2="hardAlpha" operator="out"/>
<feColorMatrix type="matrix" values="0 0 0 0 0 0 0 0 0 0 0 0 0 0 0 0 0 0 0.1 0"/>
<feBlend mode="normal" in2="BackgroundImageFix" result="effect1_dropShadow_250_1897"/>
<feBlend mode="normal" in="SourceGraphic" in2="effect1_dropShadow_250_1897" result="shape"/>
</filter>
<filter id="filter3_d_250_1897" x="1278.43" y="0.311475" width="160.672" height="156.705" filterUnits="userSpaceOnUse" color-interpolation-filters="sRGB">
<feFlood flood-opacity="0" result="BackgroundImageFix"/>
<feColorMatrix in="SourceAlpha" type="matrix" values="0 0 0 0 0 0 0 0 0 0 0 0 0 0 0 0 0 0 127 0" result="hardAlpha"/>
<feOffset dx="-5.95082" dy="7.93443"/>
<feGaussianBlur stdDeviation="22.8115"/>
<feComposite in2="hardAlpha" operator="out"/>
<feColorMatrix type="matrix" values="0 0 0 0 0 0 0 0 0 0 0 0 0 0 0 0 0 0 0.1 0"/>
<feBlend mode="normal" in2="BackgroundImageFix" result="effect1_dropShadow_250_1897"/>
<feBlend mode="normal" in="SourceGraphic" in2="effect1_dropShadow_250_1897" result="shape"/>
</filter>
<filter id="filter4_d_250_1897" x="799.426" y="305.311" width="160.672" height="156.705" filterUnits="userSpaceOnUse" color-interpolation-filters="sRGB">
<feFlood flood-opacity="0" result="BackgroundImageFix"/>
<feColorMatrix in="SourceAlpha" type="matrix" values="0 0 0 0 0 0 0 0 0 0 0 0 0 0 0 0 0 0 127 0" result="hardAlpha"/>
<feOffset dx="-5.95082" dy="7.93443"/>
<feGaussianBlur stdDeviation="22.8115"/>
<feComposite in2="hardAlpha" operator="out"/>
<feColorMatrix type="matrix" values="0 0 0 0 0 0 0 0 0 0 0 0 0 0 0 0 0 0 0.1 0"/>
<feBlend mode="normal" in2="BackgroundImageFix" result="effect1_dropShadow_250_1897"/>
<feBlend mode="normal" in="SourceGraphic" in2="effect1_dropShadow_250_1897" result="shape"/>
</filter>
<filter id="filter5_d_250_1897" x="0.426229" y="422.311" width="160.672" height="156.705" filterUnits="userSpaceOnUse" color-interpolation-filters="sRGB">
<feFlood flood-opacity="0" result="BackgroundImageFix"/>
<feColorMatrix in="SourceAlpha" type="matrix" values="0 0 0 0 0 0 0 0 0 0 0 0 0 0 0 0 0 0 127 0" result="hardAlpha"/>
<feOffset dx="-5.95082" dy="7.93443"/>
<feGaussianBlur stdDeviation="22.8115"/>
<feComposite in2="hardAlpha" operator="out"/>
<feColorMatrix type="matrix" values="0 0 0 0 0 0 0 0 0 0 0 0 0 0 0 0 0 0 0.1 0"/>
<feBlend mode="normal" in2="BackgroundImageFix" result="effect1_dropShadow_250_1897"/>
<feBlend mode="normal" in="SourceGraphic" in2="effect1_dropShadow_250_1897" result="shape"/>
</filter>
<filter id="filter6_d_250_1897" x="464.426" y="2.31147" width="160.672" height="156.705" filterUnits="userSpaceOnUse" color-interpolation-filters="sRGB">
<feFlood flood-opacity="0" result="BackgroundImageFix"/>
<feColorMatrix in="SourceAlpha" type="matrix" values="0 0 0 0 0 0 0 0 0 0 0 0 0 0 0 0 0 0 127 0" result="hardAlpha"/>
<feOffset dx="-5.95082" dy="7.93443"/>
<feGaussianBlur stdDeviation="22.8115"/>
<feComposite in2="hardAlpha" operator="out"/>
<feColorMatrix type="matrix" values="0 0 0 0 0 0 0 0 0 0 0 0 0 0 0 0 0 0 0.1 0"/>
<feBlend mode="normal" in2="BackgroundImageFix" result="effect1_dropShadow_250_1897"/>
<feBlend mode="normal" in="SourceGraphic" in2="effect1_dropShadow_250_1897" result="shape"/>
</filter>
<filter id="filter7_d_250_1897" x="1003.43" y="65.3115" width="160.672" height="156.705" filterUnits="userSpaceOnUse" color-interpolation-filters="sRGB">
<feFlood flood-opacity="0" result="BackgroundImageFix"/>
<feColorMatrix in="SourceAlpha" type="matrix" values="0 0 0 0 0 0 0 0 0 0 0 0 0 0 0 0 0 0 127 0" result="hardAlpha"/>
<feOffset dx="-5.95082" dy="7.93443"/>
<feGaussianBlur stdDeviation="22.8115"/>
<feComposite in2="hardAlpha" operator="out"/>
<feColorMatrix type="matrix" values="0 0 0 0 0 0 0 0 0 0 0 0 0 0 0 0 0 0 0.1 0"/>
<feBlend mode="normal" in2="BackgroundImageFix" result="effect1_dropShadow_250_1897"/>
<feBlend mode="normal" in="SourceGraphic" in2="effect1_dropShadow_250_1897" result="shape"/>
</filter>
</defs>
</svg>
